<svg width="336" height="56" viewBox="0 0 336 56" fill="none" xmlns="http://www.w3.org/2000/svg">
<g clip-path="url(#clip0_67_6)">
<path d="M73.823 0C73.6983 0.00844998 73.5762 0.0385739 73.4622 0.0889807C73.1015 0.355923 72.7858 0.622865 72.425 0.934297C66.7432 5.65027 60.1144 8.05275 52.8542 9.07603C51.5916 9.2095 50.3741 9.29848 49.1565 9.43195C44.5569 9.83237 39.9123 9.83237 35.3127 10.3218C30.1719 10.8556 25.392 12.3238 21.063 15.2157C17.5589 17.4448 14.7849 20.6282 13.0768 24.3807L12.4004 25.7154C10.5065 30.2534 9.96532 35.0139 10.2359 39.8634C10.3712 42.3993 9.33401 44.2679 7.1244 45.5581C5.41083 46.5369 3.74235 47.6047 2.02878 48.628C1.53725 48.9124 1.10803 49.2905 0.766145 49.7402C0.195918 50.5088 -0.0726166 51.4552 0.0102982 52.4041C0.0932131 53.3531 0.521956 54.2402 1.21709 54.9011C1.90873 55.5662 2.82453 55.9566 3.78949 55.9977C4.75445 56.0387 5.7009 55.7275 6.44799 55.1235C8.11647 53.7443 9.69476 52.2762 11.2731 50.808C12.0821 50.0073 13.1042 49.4488 14.2213 49.1968C15.3384 48.9449 16.5049 49.0099 17.5862 49.3843C21.49 50.5917 25.5962 51.0301 29.6714 50.6745H30.6635C35.7042 50.1873 40.5873 48.6723 45.0034 46.2255C53.7967 41.5095 59.4785 34.0796 63.8978 25.493C68.1349 17.3762 71.4629 8.82811 73.823 0ZM52.268 38.8846C48.5131 42.4555 44.0648 45.2401 39.1908 47.0708C36.1079 48.2649 32.8486 48.9561 29.5406 49.1173C29.3889 49.1101 29.2369 49.125 29.0897 49.1618H28.8597C28.2789 49.258 27.6888 49.2879 27.101 49.2508C23.804 49.0757 20.5371 48.5385 17.3607 47.6492C16.3022 47.339 15.1833 47.2863 14.0997 47.4954C13.016 47.7046 11.9998 48.1695 11.1378 48.8504C9.92023 49.7402 8.88307 50.8525 7.75572 51.8313C6.96372 52.6157 6.10366 53.3303 5.18536 53.9668C4.69832 54.2557 4.1201 54.3565 3.5622 54.2497C3.0043 54.1429 2.50624 53.8361 2.16406 53.3884C1.81401 52.958 1.63862 52.4146 1.67195 51.8637C1.70529 51.3128 1.94497 50.7938 2.34444 50.4076C2.66555 50.0921 3.02984 49.8226 3.42669 49.6067C5.32064 48.4055 7.34987 47.3822 9.15363 46.0475C10.5529 45.031 11.492 43.5134 11.7691 41.8209C11.9946 40.7976 11.8142 39.7744 11.8142 38.7511C11.6417 34.3048 12.4414 29.8741 14.1591 25.7599C14.2123 25.6597 14.2575 25.5556 14.2943 25.4485C16.0079 22.4676 18.939 18.5525 21.78 16.5504C26.605 13.2581 32.1516 11.9679 38.0138 11.612C40.6743 11.434 43.3349 11.345 46.0405 11.2116C47.3988 11.1963 48.7546 11.0923 50.099 10.9001C53.436 10.5442 57.4944 9.96584 60.7412 8.94256C63.5302 8.09624 66.1976 6.90005 68.6777 5.38333C68.5314 5.52144 68.3957 5.67015 68.2719 5.82824C65.6486 8.93524 62.784 11.8359 59.704 14.5039L59.0276 15.0377C58.8021 15.2602 58.261 15.8386 58.0355 16.0165C54.428 18.9084 50.8205 21.7558 46.762 23.9803C46.3053 24.2349 45.7971 24.3868 45.2739 24.4252L39.5019 24.6921C36.6159 24.8701 33.775 25.1815 31.0693 26.4273C28.5486 27.6285 26.605 29.3636 26.0233 32.0331C25.5273 34.2131 24.7156 35.9482 22.6863 37.016C22.4999 37.1508 22.3023 37.2698 22.0956 37.3719C21.9152 37.4609 21.6898 37.8613 21.4192 37.7278C21.1486 37.5943 21.2839 37.1939 21.2839 36.927V35.8147C21.2839 35.4588 21.4192 34.9249 21.4643 34.5245C22.0956 29.7196 24.1294 25.8044 28.6388 23.4464C30.3194 22.555 32.1295 21.9247 34.0049 21.5778C36.891 21.0439 39.777 20.955 42.7081 20.777C43.3394 20.7325 43.8805 20.7325 44.3315 21.3109C44.4739 21.4587 44.6452 21.5764 44.8351 21.6568C45.0251 21.7372 45.2296 21.7787 45.4363 21.7787C45.643 21.7787 45.8475 21.7372 46.0374 21.6568C46.2273 21.5764 46.3987 21.4587 46.5411 21.3109L46.5862 21.2664C46.8965 20.9619 47.0746 20.5503 47.083 20.1186C47.0915 19.6869 46.9295 19.2689 46.6313 18.9529C46.045 18.33 44.9177 18.1521 44.4217 18.8194C43.7903 19.6647 42.9787 19.6202 42.1219 19.6202L39.2809 19.7537C36.4851 19.9762 33.6442 20.2431 30.9385 21.1329C27.9133 22.1714 25.2754 24.0853 23.369 26.6249C21.4626 29.1645 20.3761 32.212 20.2513 35.3698C20.0709 36.5711 20.2513 37.7723 20.1611 39.018L16.4183 41.9989C16.4183 41.1536 16.4634 40.4862 16.4183 39.8189C16.2356 37.5622 16.3249 35.2922 16.6843 33.0563C17.9019 25.493 22.0956 20.3321 29.491 17.7516C32.2364 16.8643 35.0853 16.326 37.9687 16.15C42.5232 15.7941 47.1228 15.7941 51.6773 15.3047C51.8804 15.2632 52.0908 15.2742 52.2883 15.3365C52.4859 15.3989 52.6637 15.5105 52.8046 15.6606C53.1104 15.96 53.5237 16.128 53.9545 16.128C54.3853 16.128 54.7987 15.96 55.1044 15.6606C55.1495 15.6161 55.1946 15.5271 55.2397 15.4826C55.3771 15.3137 55.4792 15.1196 55.54 14.9114C55.6009 14.7033 55.6192 14.4853 55.5941 14.2702C55.5689 14.055 55.5007 13.8469 55.3934 13.6579C55.2862 13.4689 55.142 13.3028 54.9691 13.1691L54.9241 13.1247C54.5921 12.8666 54.1717 12.7456 53.7512 12.787C53.3307 12.8285 52.9429 13.0293 52.6694 13.3471C52.6243 13.4361 52.5792 13.4806 52.5341 13.5696C52.4206 13.7542 52.2622 13.9079 52.0732 14.0167C51.8841 14.1254 51.6705 14.1859 51.4518 14.1924C47.6188 14.5928 43.7407 14.6818 39.8627 14.9043C35.9846 15.1267 32.0614 15.5271 28.3186 16.9508C22.3211 19.2643 18.2175 23.3574 16.3236 29.4971C15.4537 32.3512 15.0727 35.3284 15.1962 38.3062C15.1962 39.4629 15.2864 40.5752 15.2413 41.7319C15.2405 42.1731 15.1289 42.6072 14.9164 42.9954C14.7039 43.3836 14.3972 43.7138 14.0238 43.9565C11.1391 45.9234 8.35635 48.032 5.6859 50.2741C5.53149 50.4313 5.33619 50.5435 5.12143 50.5984C4.90667 50.6533 4.68073 50.6489 4.46836 50.5855C4.04395 50.4876 3.59753 50.5589 3.22604 50.7838C2.85455 51.0087 2.58798 51.3691 2.48423 51.7868C2.39099 52.2051 2.46576 52.6428 2.69281 53.0078C2.91986 53.3729 3.28152 53.6369 3.70177 53.7443H3.74686C3.95117 53.7942 4.16344 53.8038 4.37152 53.7726C4.5796 53.7415 4.77941 53.6701 4.95951 53.5627C5.13961 53.4552 5.29647 53.3138 5.42111 53.1465C5.54576 52.9792 5.63574 52.7893 5.6859 52.5876C5.6859 52.4986 5.731 52.4096 5.731 52.3206C5.75704 52.075 5.83465 51.8373 5.95886 51.6229C6.08308 51.4084 6.25119 51.2218 6.4525 51.0749C8.97777 48.9839 11.6383 47.1598 14.2087 45.1577C14.7284 44.7026 15.3618 44.3926 16.0435 44.2596C16.7253 44.1267 17.4306 44.1756 18.0868 44.4014L19.3043 44.7573C21.6849 45.4042 24.1365 45.7628 26.605 45.8251C36.1649 46.003 44.0564 42.1769 50.6852 35.7257C54.428 32.0775 57.0886 27.673 59.5236 23.0905C59.6203 22.8514 59.7728 22.6381 59.9687 22.4681C60.1646 22.298 60.3983 22.1759 60.651 22.1117C60.8532 22.0606 61.0431 21.9702 61.2095 21.846C61.376 21.7218 61.5158 21.5661 61.6207 21.3881C61.7256 21.21 61.7936 21.0132 61.8206 20.809C61.8477 20.6048 61.8333 20.3973 61.7783 20.1986C61.7783 20.1541 61.7783 20.1541 61.7332 20.1096C61.6133 19.7065 61.3394 19.3652 60.9691 19.1577C60.5989 18.9501 60.1615 18.8927 59.7491 18.9974C58.8923 19.1753 58.2159 20.0651 58.5316 20.866C59.0276 21.9782 58.4414 22.6901 57.9905 23.5354C55.2848 28.4738 52.2184 33.1898 47.7992 36.8825C40.8096 42.6662 32.828 45.6471 23.5386 44.4903C21.3391 44.1455 19.1686 43.6399 17.0451 42.9777C18.0822 42.1324 19.0743 41.376 19.9762 40.5752C20.1724 40.3803 20.4201 40.2436 20.6912 40.1807C20.9622 40.1178 21.2457 40.1311 21.5094 40.2193C24.9897 41.108 28.63 41.1993 32.1516 40.4862C39.2764 39.018 44.9583 35.2364 49.5128 29.6751C49.6546 29.4617 49.8403 29.2802 50.0578 29.1422C50.2753 29.0042 50.5198 28.9129 50.7754 28.8742C51.1968 28.8368 51.5872 28.6399 51.8646 28.3247C52.1421 28.0095 52.285 27.6005 52.2635 27.1836V27.0501C52.1956 26.6204 51.9586 26.2345 51.604 25.9763C51.2493 25.718 50.8057 25.6083 50.3696 25.6709H50.3245C50.1153 25.7019 49.9146 25.7744 49.7345 25.8838C49.5544 25.9933 49.3986 26.1376 49.2765 26.3079C49.1543 26.4783 49.0683 26.6713 49.0237 26.8753C48.9791 27.0793 48.9767 27.2901 49.0167 27.495C49.0149 27.5573 49.0305 27.6189 49.0618 27.673C49.1292 27.8929 49.1311 28.1273 49.0671 28.3482C49.0031 28.5691 48.8761 28.7671 48.7011 28.9187C47.0765 30.9814 45.1809 32.8217 43.0643 34.391C37.8334 38.2172 32.0614 40.2638 25.4777 39.7299C24.2626 39.6887 23.0611 39.4636 21.9152 39.0625L22.8171 38.3507C23.0076 38.2477 23.1886 38.1286 23.3582 37.9948C24.8914 36.6156 26.5599 35.5923 28.7695 35.9927C28.9212 36 29.0732 35.985 29.2205 35.9482C35.3533 35.3253 40.4038 32.5224 44.4622 27.9844C46.153 26.222 48.1165 24.7354 50.2794 23.5799C53.5712 21.6668 57.2689 19.3533 60.155 16.8618C60.2695 16.7841 60.3753 16.6947 60.4706 16.5949C63.1428 14.3605 65.6461 11.9368 67.9607 9.34297C68.7724 8.40868 69.7194 7.51887 70.3958 6.40661C70.2718 6.63535 70.1663 6.87337 70.0802 7.11846C68.1817 12.769 65.8915 18.284 63.2259 23.6244L63.1357 23.7578C60.3849 28.6518 56.3265 35.0584 52.268 38.8846ZM44.6922 25.8044C44.3475 26.3793 43.9224 26.9035 43.4296 27.3616C39.7319 31.1877 35.4029 33.8127 30.0367 34.658C29.0897 34.7915 28.1427 34.7915 27.1957 34.8359C26.6997 34.8804 26.5193 34.7025 26.6095 34.1686C27.1507 31.0098 28.774 28.6518 31.8404 27.3616C34.5912 26.1603 37.5223 25.9824 40.4985 25.8044C41.8513 25.7599 43.2041 25.8044 44.6922 25.8044ZM44.9177 20.1096C44.9189 19.9802 44.9715 19.8564 45.0643 19.7649C45.157 19.6733 45.2825 19.6214 45.4137 19.6202H45.4588C45.7745 19.6647 45.9549 19.8427 45.9098 20.1541C45.9013 20.2662 45.853 20.3717 45.7733 20.452C45.6936 20.5323 45.5877 20.5821 45.4743 20.5928C45.3609 20.6035 45.2474 20.5742 45.1538 20.5102C45.0602 20.4462 44.9925 20.3516 44.9628 20.2431C44.9457 20.2255 44.9329 20.2044 44.9251 20.1814C44.9173 20.1583 44.9147 20.1338 44.9177 20.1096ZM53.3954 14.4594C53.3841 14.3297 53.4251 14.2009 53.5095 14.1009C53.594 14.0009 53.715 13.9379 53.8463 13.9255C54.2071 13.97 54.3874 14.1479 54.3874 14.4594C54.3914 14.5188 54.3825 14.5784 54.3612 14.6342C54.34 14.6899 54.3069 14.7406 54.2642 14.7827C54.2215 14.8248 54.1702 14.8575 54.1137 14.8784C54.0572 14.8994 53.9967 14.9082 53.9365 14.9043H53.8463C53.7292 14.8969 53.6187 14.8477 53.5357 14.7658C53.4527 14.6839 53.4028 14.575 53.3954 14.4594ZM4.55855 52.0537C4.56487 52.1158 4.5579 52.1784 4.53809 52.2377C4.51827 52.2969 4.48606 52.3513 4.44354 52.3975C4.40102 52.4436 4.34914 52.4804 4.29127 52.5055C4.2334 52.5306 4.17082 52.5434 4.10761 52.5431C3.74686 52.4986 3.56648 52.3207 3.56648 52.0092C3.5625 51.9498 3.57143 51.8902 3.59268 51.8344C3.61393 51.7787 3.64702 51.728 3.68971 51.6859C3.73241 51.6438 3.78373 51.6111 3.84025 51.5902C3.89677 51.5692 3.95717 51.5604 4.01742 51.5643C4.15376 51.5628 4.28557 51.6125 4.38607 51.7034C4.48658 51.7943 4.54825 51.9196 4.55855 52.0537ZM59.7085 20.5545C59.6634 20.3321 59.8889 20.1096 60.1144 20.0651H60.2046C60.2648 20.0612 60.3252 20.07 60.3817 20.091C60.4383 20.112 60.4896 20.1446 60.5323 20.1867C60.575 20.2288 60.6081 20.2795 60.6293 20.3353C60.6506 20.391 60.6595 20.4506 60.6555 20.51C60.6706 20.627 60.6425 20.7454 60.5762 20.8435C60.5099 20.9415 60.41 21.0127 60.2948 21.0439H60.2046C59.8889 20.9994 59.7085 20.866 59.7085 20.5545ZM50.0539 27.2281C50.0499 27.1687 50.0588 27.1091 50.0801 27.0533C50.1014 26.9975 50.1344 26.9469 50.1771 26.9048C50.2198 26.8626 50.2711 26.83 50.3277 26.809C50.3842 26.7881 50.4446 26.7793 50.5048 26.7832C50.5675 26.7704 50.6322 26.7708 50.6946 26.7846C50.7571 26.7983 50.8158 26.825 50.867 26.8629C50.9182 26.9008 50.9606 26.949 50.9915 27.0042C51.0223 27.0595 51.0409 27.1207 51.046 27.1836C51.0009 27.5395 50.8656 27.7175 50.5499 27.7175C50.4324 27.7203 50.3177 27.6815 50.2267 27.608C50.1357 27.5345 50.0744 27.4313 50.0539 27.3171V27.2281Z" fill="#00E3A5"/>
<path d="M20.2543 35.3699C20.2058 35.4176 20.2058 35.4654 20.2543 35.3699V35.3699Z" fill="#7BC80F"/>
<path d="M84.1049 23.2686H90.7337V46.2256H105.119V51.5644H84.1049V23.2686Z" fill="white"/>
<path d="M108.726 25.76C108.371 25.4463 108.087 25.0623 107.893 24.633C107.699 24.2036 107.598 23.7387 107.599 23.2685C107.588 22.7968 107.684 22.3287 107.879 21.8979C108.074 21.467 108.363 21.0842 108.726 20.7771C109.518 20.0816 110.552 19.715 111.612 19.7538C112.665 19.7078 113.696 20.0576 114.498 20.7326C114.859 21.0315 115.148 21.4064 115.343 21.8299C115.538 22.2533 115.635 22.7145 115.626 23.1795C115.641 23.6715 115.549 24.161 115.354 24.6142C115.16 25.0675 114.868 25.4736 114.498 25.8045C113.706 26.4999 112.672 26.8665 111.612 26.8277C110.548 26.8435 109.517 26.4621 108.726 25.76ZM108.411 29.8086H114.814V51.5644H108.411V29.8086Z" fill="white"/>
<path d="M140.743 31.8997C142.411 33.5013 143.268 35.9038 143.268 39.1071V51.5644H136.865V40.0859C136.865 38.3508 136.504 37.0606 135.738 36.2153C135.309 35.775 134.789 35.4316 134.213 35.2089C133.636 34.9861 133.018 34.8893 132.401 34.925C131.693 34.8895 130.986 35.0019 130.325 35.2549C129.664 35.5079 129.066 35.8958 128.568 36.3932C127.621 37.372 127.125 38.8402 127.125 40.7978V51.5644H120.721V29.8087H126.809V32.3446C127.689 31.4118 128.767 30.6826 129.965 30.2091C131.287 29.6985 132.695 29.4418 134.114 29.4527C136.865 29.4972 139.074 30.298 140.743 31.8997Z" fill="white"/>
<path d="M158.51 43.0222L155.444 46.0031V51.5199H149.04V21.5779H155.444V38.5732L164.778 29.8086H172.399L163.24 39.0181L173.251 51.5644H165.495L158.51 43.0222Z" fill="white"/>
<path d="M196.61 42.4882H179.925C180.198 43.781 180.955 44.9248 182.045 45.6915C183.281 46.509 184.751 46.9144 186.238 46.8483C187.281 46.8559 188.318 46.6904 189.305 46.3589C190.227 45.985 191.069 45.4415 191.785 44.7572L195.167 48.4055C193.093 50.7634 190.071 51.9202 186.058 51.9202C183.781 51.9592 181.526 51.4716 179.474 50.4965C177.647 49.6215 176.113 48.2471 175.055 46.5369C174.258 45.2559 173.733 43.8283 173.513 42.3409C173.293 40.8536 173.382 39.3376 173.774 37.8852C174.166 36.4328 174.854 35.0742 175.795 33.8923C176.736 32.7103 177.911 31.7296 179.249 31.0097C181.099 30.0552 183.159 29.5661 185.246 29.586C187.287 29.551 189.303 30.0254 191.108 30.9652C192.837 31.8633 194.264 33.2394 195.212 34.9249C196.236 36.7465 196.749 38.8042 196.7 40.8866C196.72 41.4221 196.69 41.9582 196.61 42.4882ZM181.684 35.4588C180.674 36.3044 180.03 37.4975 179.88 38.7955H190.748C190.587 37.5134 189.943 36.338 188.944 35.5033C187.932 34.6749 186.651 34.2329 185.336 34.2575C184.014 34.2186 182.722 34.6443 181.688 35.4588H181.684Z" fill="white"/>
<path d="M223.49 21.5779V51.5644H217.353V49.0729C215.775 50.9415 213.475 51.9203 210.454 51.9203C208.485 51.9556 206.541 51.48 204.817 50.5411C203.158 49.6162 201.786 48.2627 200.849 46.6259C199.861 44.8085 199.364 42.7706 199.406 40.7087C199.375 38.648 199.871 36.6128 200.849 34.7915C201.747 33.1261 203.129 31.763 204.817 30.8764C206.541 29.9375 208.485 29.4619 210.454 29.4972C213.25 29.4972 215.459 30.387 217.038 32.1221V21.5779H223.49ZM215.599 45.0688C216.681 43.9565 217.177 42.5328 217.177 40.6642C217.247 39.0501 216.681 37.4719 215.599 36.2597C215.09 35.7163 214.467 35.288 213.775 35.0038C213.082 34.7197 212.335 34.5866 211.586 34.6136C210.83 34.5909 210.078 34.7258 209.378 35.0094C208.679 35.2931 208.048 35.7191 207.527 36.2597C206.445 37.372 205.949 38.7956 205.949 40.6642C205.879 42.2784 206.445 43.8566 207.527 45.0688C208.598 46.1235 210.05 46.7158 211.563 46.7158C213.076 46.7158 214.528 46.1235 215.599 45.0688Z" fill="white"/>
<path d="M235.756 28.6074H226.557V23.2686H251.539V28.6074H242.34V51.5644H235.711V28.6074H235.756Z" fill="white"/>
<path d="M263.399 30.2979C264.819 29.7433 266.336 29.4712 267.863 29.497V35.3253C267.141 35.2808 266.691 35.2363 266.42 35.2363C264.571 35.2363 263.173 35.7257 262.136 36.749C261.099 37.7723 260.558 39.2849 260.558 41.287V51.5643H254.154V29.8085H260.242V32.7004C261.051 31.6289 262.143 30.7977 263.399 30.2979Z" fill="white"/>
<path d="M294.063 29.8086V51.5644H288.02V48.9839C287.174 49.908 286.144 50.6501 284.994 51.164C283.782 51.6703 282.478 51.9277 281.161 51.9203C278.275 51.9203 275.975 51.1195 274.262 49.4733C272.548 47.8272 271.736 45.3802 271.736 42.1769V29.8086H278.14V41.1536C278.14 44.6684 279.628 46.4035 282.604 46.4035C283.291 46.4308 283.975 46.314 284.613 46.0609C285.25 45.8078 285.826 45.4242 286.302 44.9353C287.249 43.9565 287.7 42.4883 287.7 40.5308V29.8086H294.063Z" fill="white"/>
<path d="M302.044 51.2085C300.563 50.8706 299.147 50.2997 297.85 49.5178L299.97 44.9798C301.078 45.6485 302.278 46.1579 303.532 46.4925C304.865 46.8774 306.247 47.0722 307.636 47.0709C310.342 47.0709 311.694 46.4035 311.694 45.0688C311.694 44.4459 311.334 44.001 310.567 43.7341C309.468 43.389 308.334 43.1652 307.185 43.0667C305.676 42.8625 304.184 42.5503 302.721 42.1324C301.551 41.783 300.494 41.139 299.654 40.2638C298.797 39.374 298.346 38.1283 298.346 36.4821C298.328 35.166 298.756 33.8816 299.564 32.8339C300.472 31.6894 301.692 30.8249 303.081 30.3425C304.831 29.7227 306.679 29.4212 308.538 29.4527C310.099 29.4591 311.655 29.6231 313.182 29.9421C314.522 30.2144 315.813 30.6791 317.015 31.3213L314.896 35.8148C312.953 34.7461 310.762 34.1942 308.538 34.2131C307.185 34.2131 306.148 34.3911 305.471 34.7915C305.174 34.9119 304.918 35.1145 304.734 35.3749C304.55 35.6353 304.446 35.9425 304.434 36.2597C304.43 36.588 304.54 36.9079 304.745 37.1666C304.95 37.4254 305.238 37.6076 305.562 37.6834C306.705 38.0525 307.883 38.3059 309.079 38.4397C310.883 38.7512 312.371 39.0626 313.498 39.374C314.638 39.7087 315.665 40.3386 316.474 41.1981C317.331 42.0879 317.737 43.3337 317.737 44.9353C317.748 46.2367 317.32 47.5047 316.519 48.539C315.582 49.6814 314.329 50.5313 312.912 50.986C311.117 51.6089 309.223 51.9102 307.32 51.8758C305.54 51.8703 303.768 51.6461 302.044 51.2085Z" fill="white"/>
<path d="M336 50.4966C335.305 50.977 334.525 51.3241 333.7 51.5199C332.756 51.7531 331.787 51.8726 330.814 51.8758C328.199 51.8758 326.169 51.2085 324.726 49.8738C323.283 48.5391 322.562 46.626 322.562 44.0455V35.1475H319.18V30.298H322.562V25.0037H328.965V30.298H334.467V35.1475H328.965V44.001C328.934 44.3865 328.982 44.7743 329.106 45.1412C329.23 45.508 329.428 45.8466 329.687 46.1366C329.956 46.3916 330.274 46.5901 330.623 46.7201C330.972 46.8501 331.344 46.9089 331.716 46.8929C332.639 46.9147 333.543 46.6329 334.286 46.0921L336 50.4966Z" fill="white"/>
</g>
<defs>
<clipPath id="clip0_67_6">
<rect width="336" height="56" fill="white"/>
</clipPath>
</defs>
</svg>
